<svg id="Layer_1" data-name="Layer 1" xmlns="http://www.w3.org/2000/svg" viewBox="0 0 56 56"><path d="M10.25,41.06c2.39-.59,6,2.48,5.77,4.62-.3,2.72-7.26,3.9-11.55,4.63-.81.13-3.33.48-3.47,0s1.67-1,3.47-2.31C8.37,45.07,8,41.62,10.25,41.06Z"/><path d="M54.52,6.54,53.3,5.23C50.76,2.52,45.83,3,42.29,6.3l-22.94,28c-3.2,3-5,6.24-4.05,7.27l.46.5c1,1,4.34-.56,7.54-3.55l29.41-21C56.25,14.14,57.06,9.26,54.52,6.54ZM46.86,16.87l-5.8-3L41.5,13l5.13,2.69-2.26-5.47.87-.36,2.49,6.06-.47.19Zm6.72-5.65H49.42l1.5,1.64-.69.63L45.81,8.65,46.5,8l1.94,2.13L48.25,6,49,6l.21,4.45h4.34Z"/></svg>