<svg id="Layer_1" data-name="Layer 1" xmlns="http://www.w3.org/2000/svg" xmlns:xlink="http://www.w3.org/1999/xlink" viewBox="0 0 301.63 239.45"><defs><style>.cls-1,.cls-4{fill:none;}.cls-2{clip-path:url(#clip-path);}.cls-3{fill:#6a1b9a;}.cls-4{stroke:#000;stroke-miterlimit:10;stroke-width:7px;}</style><clipPath id="clip-path"><rect class="cls-1" x="32.75" y="32.09" width="253" height="185"/></clipPath></defs><g class="cls-2"><path class="cls-3" d="M19.8,218.36c.77-5.42-2.1-10.59-4.21-15.64s-3.37-11.35.08-15.61c3.32-4.09,9.45-4.35,14.66-3.53s10.63,2.35,15.61.62c5.73-2,9.22-7.76,11.5-13.38s4-11.71,8-16.21A19.17,19.17,0,1,1,89,184.25c-2.36,1.31-5.2,2.31-6.4,4.73-1.57,3.2.71,7.06,3.63,9.11s6.48,3.07,9.26,5.31c4.86,3.91,6.36,11.1,4.41,17S93,231,87.42,233.73s-11.93,3.69-18.16,4a98.14,98.14,0,0,1-42.34-7.15c-2.56-1.05-5.18-2.3-6.82-4.52s-1.88-5.71.18-7.55"/><path d="M21.3,218.36c.71-5.73-2.12-10.92-4.26-16-1.71-4.08-3.26-9.5-.72-13.56,2.4-3.82,7.44-4.29,11.52-4,5.49.42,10.79,2.38,16.34,1.41,10.54-1.84,13.91-13.26,17.34-21.78,1.86-4.62,4.34-9.11,8.68-11.8a18.31,18.31,0,0,1,13.39-2.38c8.87,2,15.22,11.22,13.5,20.21A18.41,18.41,0,0,1,89.8,182c-3.58,2.5-9,3.72-9.22,9-.22,5,4.28,8.37,8.27,10.37,2.2,1.1,4.55,2.1,6.36,3.82a12.83,12.83,0,0,1,3.35,5.56c2.9,9.6-4.17,18.2-12.5,22-5.11,2.33-10.8,3.18-16.36,3.51a97,97,0,0,1-17.45-.54A95.6,95.6,0,0,1,35.11,232c-2.7-.84-5.37-1.79-8-2.88-2.2-.92-4.7-2.07-6-4.17-1-1.62-1.24-3.91.22-5.32s-.73-3.47-2.12-2.12a6.74,6.74,0,0,0-1.71,6.41,9.72,9.72,0,0,0,4.4,5.88,36.3,36.3,0,0,0,7.61,3.46c2.88,1.06,5.81,2,8.78,2.79A95.51,95.51,0,0,0,75,238.73c10.45-1.39,21.5-6.13,25.77-16.5a18.46,18.46,0,0,0-.11-14.33,14.82,14.82,0,0,0-4.16-5.56,41.2,41.2,0,0,0-7.09-4.07c-2.24-1.18-4.4-2.65-5.43-5.06s-.09-4.32,1.94-5.62,4.41-2.24,6.4-3.81a21,21,0,0,0,5-5.66,20.63,20.63,0,0,0-31.6-25.87c-8.22,7.36-7.78,20-15.65,27.62a12.54,12.54,0,0,1-6.7,3.44,26.84,26.84,0,0,1-9.06-.55c-4.94-.87-10.24-1.87-15.09.05A11.47,11.47,0,0,0,12,194.25c.17,5.61,3,10.38,4.92,15.5a18,18,0,0,1,1.35,8.61c-.24,1.91,2.76,1.9,3,0Z"/><path class="cls-3" d="M136,91.41c-4.4,1.12-6.14,6.92-4.54,11.17s5.43,7.2,9.16,9.79,7.7,5.2,9.85,9.2c5,9.36-1.73,22.48,4.69,31,3.36,4.44,9.78,6,15.06,4.22s9.28-6.48,10.92-11.8a26.09,26.09,0,0,0-.8-16.39c-2.72-7.52-8.15-14.3-8.34-22.29-.15-6.33,3.06-12.81,1-18.79-2.41-6.87-11.15-9.72-18.24-8S141.85,86.14,136.39,91"/><path d="M135.58,90c-6.52,1.85-7.53,10.14-4.54,15.29,3.86,6.65,11.74,9,16.55,14.77,4.62,5.5,3.26,13.16,3.09,19.77s1.13,13.84,7.55,17.31a16.28,16.28,0,0,0,18.94-2.93c5.77-5.52,7.33-13.81,5.85-21.43-1.53-7.92-6.83-14.33-8.88-22.05-1.07-4-.54-7.82.18-11.82s1.39-8,.06-11.79c-2.14-6.09-8.46-9.26-14.6-9.58-7.58-.39-14.33,3.93-19.95,8.54-1.53,1.25-3,2.56-4.5,3.87S136,93.3,137.46,92c5.28-4.68,11-9.75,18.11-11.23,5.08-1.06,11.51.36,14.68,4.76,4.35,6,.06,14.06.22,20.71.17,7.23,4.3,13.41,7.2,19.78,3,6.65,4.32,14.68.8,21.41-2.9,5.56-8.83,9.58-15.27,8.27a11.22,11.22,0,0,1-7.29-4.68,16.06,16.06,0,0,1-2.23-8.35c-.22-6.23,1.18-12.66-.65-18.75-2.07-6.85-8.21-10.25-13.6-14.25-4.42-3.27-9.57-9-5.87-14.75a4.84,4.84,0,0,1,2.81-2.09,1.5,1.5,0,0,0-.79-2.9Z"/><path class="cls-3" d="M215.65,227.37a9.78,9.78,0,0,1-6-15.45c3-4,8.78-5.47,10.94-9.95,2.64-5.46-1.57-11.55-3.15-17.4a20.1,20.1,0,1,1,39.39-3c-.21,1.86-.68,3.76-.24,5.58,1,4.18,6.11,5.83,10.41,5.85s8.91-.77,12.66,1.33c4.09,2.29,5.81,7.62,4.82,12.2s-4.23,8.41-8,11.19c-9.58,7.08-22.17,8.18-34,9l-27.4,2"/><path d="M216.05,225.92a8.38,8.38,0,0,1-6.82-7.57c-.22-3.95,2.17-6.64,5.22-8.76,2.71-1.88,5.79-3.66,7.34-6.71,1.87-3.68,1-7.73-.3-11.43s-3.09-7.25-3.21-11.23A19.5,19.5,0,0,1,221,169.73a18.53,18.53,0,0,1,34,5.68,17.72,17.72,0,0,1,.42,5.43c-.16,2.25-.79,4.46-.25,6.71.8,3.29,3.79,5.32,6.86,6.24,3.65,1.08,7.38.52,11.12.59s7.41,1.29,9.16,5c3.47,7.41-2.63,14.67-8.58,18.42-6.93,4.36-15.19,5.93-23.22,6.77-9.29,1-18.65,1.43-28,2.09l-7.48.54c-1.91.13-1.92,3.14,0,3,10.37-.74,20.75-1.4,31.1-2.24,8.77-.7,17.73-1.81,25.72-5.71,7.1-3.46,14.61-10,14.4-18.64a12.73,12.73,0,0,0-4.56-9.72c-3.54-2.77-8.12-2.59-12.38-2.44-3.39.11-7.56.06-10.1-2.59-1.54-1.59-1.37-3.68-1.09-5.73a23.39,23.39,0,0,0,.16-6.14,21.57,21.57,0,0,0-36.51-13.13,22.22,22.22,0,0,0-5.55,21.88c1.23,4.07,3.77,8.14,3.72,12.5,0,4.11-3.36,6.28-6.42,8.36s-6.17,4.71-7,8.69A11.28,11.28,0,0,0,210,226.21a11.65,11.65,0,0,0,5.22,2.6c1.88.4,2.69-2.49.8-2.89Z"/><path class="cls-3" d="M295.57,172.15c-6.13-10.19-23.39-8.85-29.07-19.29-4.93-9.08,2.34-21-2-30.43-2.25-4.9-7.15-7.94-10.79-11.92S247.88,99.92,251.57,96c2.87-3,8.07-2.72,11.51-.34s5.48,6.28,7.18,10.1,3.25,7.83,6.09,10.9c3.91,4.23,9.74,6.11,14.18,9.77,6.39,5.26,9.34,13.79,9.65,22s-1.69,16.42-3.68,24.44"/><path d="M296.87,171.39c-2.81-4.55-7.55-7-12.34-8.95s-9.9-3.35-13.77-6.72c-4.85-4.22-4.87-10.32-4.18-16.26.74-6.4,2-13.27-1.46-19.14s-10.22-8.75-13-14.95c-1.12-2.55-1.63-5.91.35-8.18s5.44-2.28,8-1.21c3.07,1.25,5.14,4.16,6.67,7,1.74,3.19,2.92,6.65,4.64,9.85a22.48,22.48,0,0,0,6.8,7.83c2.82,2,6,3.53,8.88,5.46,5.8,3.86,9.13,10,10.47,16.78,1.57,7.83.24,15.92-1.52,23.6-.46,2-1,4-1.46,6s2.43,2.68,2.9.8c3.68-14.83,7.42-32.89-3.87-45.55a33.42,33.42,0,0,0-8.54-6.42c-3.18-1.83-6.46-3.64-8.81-6.53-4.71-5.81-5.52-14-11.22-19.13a12.4,12.4,0,0,0-9.07-3.37A8.66,8.66,0,0,0,249,97.2c-3,6.64,2.28,13.28,6.89,17.49,2.58,2.35,5.37,4.67,7,7.81s1.71,6.6,1.46,10c-.49,6.75-2.52,13.85.44,20.32,4.92,10.77,19.06,10,27,17.14a13.89,13.89,0,0,1,2.49,3c1,1.64,3.61.14,2.59-1.51Z"/><path class="cls-3" d="M121.08,17.11a15,15,0,0,1,15.44,5.25,15,15,0,0,1,1,16.28c-2.25,3.85-6.38,7.11-6.19,11.56.23,5.26,6.16,8,11.17,9.68,4.14,1.35,8.88,2.66,12.67.5,2.89-1.66,4.4-4.89,6.29-7.64s5-5.34,8.21-4.56c2.68.65,4.28,3.31,5.81,5.61s3.83,4.69,6.57,4.29c3.82-.55,4.72-5.66,4.33-9.5-1.53-15.16-8.69-30.11-21-39.08s-30-11-43-3.09c-1.91,1.15-3.82,2.63-4.5,4.76s.46,4.94,2.68,5.22"/><path d="M121.47,18.55A13.27,13.27,0,0,1,137.9,30a13.81,13.81,0,0,1-.72,5.88,18.63,18.63,0,0,1-3.06,5c-2.28,3-4.73,6.15-4.19,10.13.48,3.53,3.19,6.07,6.15,7.74a36.05,36.05,0,0,0,11.06,3.91c4.18.75,8.35.15,11.35-3.09,2.68-2.9,4-7.16,7.5-9.26,4.22-2.55,6.53,1.93,8.65,4.84s6,5.94,9.74,3.64c2.78-1.71,3.55-5.37,3.59-8.4a45.89,45.89,0,0,0-1.86-11.79C182,22.92,171.5,8.62,156,2.78A42.36,42.36,0,0,0,132.18.92,34.25,34.25,0,0,0,121,5.51c-3.08,2-5.94,5.39-4.35,9.26a4.82,4.82,0,0,0,3.52,3.07c1.88.34,2.69-2.55.79-2.9a2.46,2.46,0,0,1-1.71-3.08c.36-1.72,2-3,3.42-3.86A32,32,0,0,1,133,3.82a39.39,39.39,0,0,1,22.19,1.85c14.46,5.44,24.12,19,28,33.57A44.6,44.6,0,0,1,185,50.11c0,2.19-.41,6.27-3.28,6.51-3.59.3-5.65-5.13-7.61-7.31a7.39,7.39,0,0,0-9.77-1.47c-3.33,2.1-4.83,5.64-7.12,8.66a8.3,8.3,0,0,1-4.25,3.2,12,12,0,0,1-6-.12c-5-1.12-16-4.22-13.82-11.39,1-3.36,4-5.81,5.72-8.79a16.43,16.43,0,0,0,1.91-10.75,16.15,16.15,0,0,0-14.85-13.46,16,16,0,0,0-5.2.47,1.5,1.5,0,0,0,.79,2.89Z"/><path class="cls-3" d="M226.07,19.5c-4,.13-6.91,4.52-6.68,8.54s2.75,7.56,5.56,10.45,6,5.43,8.31,8.75S236.73,55,235,58.65s-6.28,5.78-7.31,9.75c-1.13,4.36,2.84,8.76,7.26,9.64s8.93-.8,13-2.78a82.5,82.5,0,0,0,15.61-10c3.26-2.64,6.54-6,6.73-10.18.12-2.84-1.19-5.93.23-8.39s4.65-2.87,7.39-2.56,5.57,1.14,8.21.34c3.67-1.11,5.84-5.29,5.4-9.1s-3-7.1-6.19-9.25a34.34,34.34,0,0,0-10.61-4.26,161.79,161.79,0,0,0-47.89-5.27"/><path d="M226.07,18a8.64,8.64,0,0,0-7.32,5.49,11.89,11.89,0,0,0,.78,10.25c1.78,3.47,4.68,6.17,7.47,8.82s5.82,5.62,6.92,9.53a8.62,8.62,0,0,1,0,5.27,11.52,11.52,0,0,1-2.94,4c-2.27,2.3-4.7,4.65-5,8.06s2,6.6,4.71,8.45c3.31,2.22,7.49,2.25,11.24,1.29A47,47,0,0,0,253.44,74,85.48,85.48,0,0,0,264,66.79c2.93-2.33,5.81-5,7.11-8.64a11.82,11.82,0,0,0,.44-5.51c-.2-1.7-.75-3.92.35-5.43,2.08-2.85,7.05-1.29,9.83-1,3.81.43,7.28-.69,9.48-3.94,4.35-6.42,0-14.14-5.77-17.79-3.58-2.25-7.74-3.39-11.8-4.42q-6.5-1.66-13.11-2.78A164,164,0,0,0,233.46,15c-2.23,0-4.47,0-6.7.13-1.92.07-1.93,3.07,0,3A158,158,0,0,1,276,23.81c3.57,1,7.26,2.31,10.06,4.83,2.37,2.13,4.25,5.17,4,8.47-.26,2.89-2.23,5.69-5.22,6.17-3.57.56-7.09-1.14-10.7-.48A6.64,6.64,0,0,0,268.31,49a47.62,47.62,0,0,0,.41,5.33,8.29,8.29,0,0,1-1.35,4.76c-1.88,3.06-5,5.34-7.86,7.43a83.48,83.48,0,0,1-10,6.24c-5.59,3-15.24,7.32-19.67.18-1.75-2.82-.62-5.46,1.47-7.68S235.86,61,236.84,58c2.36-7.3-3.54-13.57-8.35-18.13-4.19-4-10.93-11.07-5.88-17A5,5,0,0,1,226.07,21c1.92-.12,1.93-3.12,0-3Z"/><path class="cls-3" d="M1.44,76.56C11.62,69.7,23.38,62.51,35.35,65.25c6.52,1.5,12,5.77,17.48,9.61s11.61,7.48,18.31,7.38,13.7-5.48,13.13-12.16c-.54-6.44-7.42-10.89-8.25-17.31-.78-6,4-11.34,5.12-17.32C82.71,27,76.51,18.73,68.8,15s-16.59-3.9-25.14-4c-8-.11-16.63,0-23.17,4.58-5.81,4.11-8.85,11.07-11,17.84A131.12,131.12,0,0,0,3,74.78"/><path d="M2.19,77.85c8-5.35,16.88-11.29,26.78-11.68,10.18-.4,17.59,6.47,25.59,11.68,7.27,4.74,16.75,8.5,24.84,3.4a13.06,13.06,0,0,0,6.32-9.17c.48-3.86-1.38-7.34-3.48-10.42s-4.86-6.39-4.8-10.41c.06-4.28,2.7-8.14,4.16-12a17.49,17.49,0,0,0,.2-12.38A23.36,23.36,0,0,0,74.61,17C67,10.79,56.88,9.79,47.43,9.56c-8.9-.22-19-.81-26.86,4.16-7.68,4.86-11,13.91-13.5,22.22A133,133,0,0,0,1.69,67c-.14,2.59-.19,5.19-.18,7.79a1.5,1.5,0,0,0,3,0A129.87,129.87,0,0,1,7.85,44.73,115.41,115.41,0,0,1,11.9,30.85a34.4,34.4,0,0,1,6-10.86c6-6.9,15.18-7.57,23.74-7.52,9.11,0,19.18-.13,27.42,4.35C75.71,20.44,81.46,28.06,79.48,36c-1,4.08-3.45,7.63-4.52,11.69a14,14,0,0,0,1.71,11c1.82,3.11,4.49,5.87,5.64,9.33a8.61,8.61,0,0,1-2.69,9.31c-6.83,6.25-16.24,2.59-23-1.73C49,70.75,42.13,64.38,32.79,63.31S14.4,66.6,6.66,71.38c-2,1.24-4,2.55-6,3.88-1.59,1.07-.09,3.67,1.51,2.59Z"/><path d="M89.52,192.22,46.71,61.09A9.74,9.74,0,0,1,56,48.33h.45a9.73,9.73,0,0,1,9.28,6.8L87,122.51c6.48,20.34,12.06,38.66,16.08,56.31h.45c4.25-17.43,10.5-36.42,17.21-56.08L144,54.91a9.72,9.72,0,0,1,9.21-6.58h0a9.74,9.74,0,0,1,9.17,13L115.47,192.47a9.74,9.74,0,0,1-9.17,6.46H98.77A9.73,9.73,0,0,1,89.52,192.22Z"/><path d="M177.46,48.33h1.17a9.12,9.12,0,0,1,9.13,9.13V121h.68c4-5.81,8-11.17,11.84-16.09l43.29-53.17a9.11,9.11,0,0,1,7.08-3.36h0a9.13,9.13,0,0,1,7,15.05l-37.17,43.56a9.15,9.15,0,0,0-.61,11L265,184.68a9.13,9.13,0,0,1-7.56,14.25h-.93a9.14,9.14,0,0,1-7.58-4l-40.23-60a9.12,9.12,0,0,0-14.49-.89L190,138.93a9.12,9.12,0,0,0-2.23,6V189.8a9.13,9.13,0,0,1-9.13,9.13h-1.17a9.13,9.13,0,0,1-9.13-9.13V57.46A9.12,9.12,0,0,1,177.46,48.33Z"/><polyline class="cls-4" points="33.75 64.94 33.75 34.09 81.32 34.09"/><polyline class="cls-4" points="81.32 34.09 283.75 34.09 283.75 215.09 33.75 215.09 33.75 64.94"/></g></svg>